<svg xmlns="http://www.w3.org/2000/svg" width="800" height="600" viewBox="0 0 800 600">
  <rect width="800" height="600" fill="#FAF9F6"/>
  <line x1="80" y1="180" x2="720" y2="180" stroke="#1A1A1A" stroke-width="3"/>
  <line x1="80" y1="186" x2="720" y2="186" stroke="#1A1A1A" stroke-width="1"/>
  <text x="400" y="160" text-anchor="middle" font-family="Georgia, 'Times New Roman', serif" font-size="52" font-weight="bold" fill="#1A1A1A">South Bay Signal</text>
  <text x="400" y="220" text-anchor="middle" font-family="'Helvetica Neue', Arial, sans-serif" font-size="13" font-weight="400" letter-spacing="3" fill="#888888" text-transform="uppercase">SANTA CLARA COUNTY</text>
  <line x1="80" y1="250" x2="720" y2="250" stroke="#C8C4BC" stroke-width="1"/>
  <!-- Column lines -->
  <line x1="290" y1="270" x2="290" y2="520" stroke="#E5E2DB" stroke-width="1"/>
  <line x1="510" y1="270" x2="510" y2="520" stroke="#E5E2DB" stroke-width="1"/>
  <!-- Col 1 -->
  <text x="100" y="300" font-family="Georgia, serif" font-size="18" font-weight="bold" fill="#1A1A1A">Sports</text>
  <rect x="100" y="315" width="170" height="8" rx="2" fill="#E5E2DB"/>
  <rect x="100" y="330" width="140" height="8" rx="2" fill="#E5E2DB"/>
  <rect x="100" y="345" width="160" height="8" rx="2" fill="#E5E2DB"/>
  <rect x="100" y="370" width="50" height="24" rx="3" fill="#C0392B"/>
  <text x="125" y="387" text-anchor="middle" font-family="'Helvetica Neue', Arial, sans-serif" font-size="10" font-weight="700" fill="white">LIVE</text>
  <rect x="160" y="375" width="100" height="8" rx="2" fill="#E5E2DB"/>
  <rect x="100" y="410" width="170" height="8" rx="2" fill="#E5E2DB"/>
  <rect x="100" y="425" width="130" height="8" rx="2" fill="#E5E2DB"/>
  <!-- Col 2 -->
  <text x="310" y="300" font-family="Georgia, serif" font-size="18" font-weight="bold" fill="#1A1A1A">Government</text>
  <rect x="310" y="315" width="180" height="8" rx="2" fill="#E5E2DB"/>
  <rect x="310" y="330" width="150" height="8" rx="2" fill="#E5E2DB"/>
  <rect x="310" y="345" width="170" height="8" rx="2" fill="#E5E2DB"/>
  <rect x="310" y="360" width="120" height="8" rx="2" fill="#E5E2DB"/>
  <rect x="310" y="390" width="180" height="8" rx="2" fill="#E5E2DB"/>
  <rect x="310" y="405" width="140" height="8" rx="2" fill="#E5E2DB"/>
  <rect x="310" y="420" width="165" height="8" rx="2" fill="#E5E2DB"/>
  <!-- Col 3 -->
  <text x="530" y="300" font-family="Georgia, serif" font-size="18" font-weight="bold" fill="#1A1A1A">Events</text>
  <rect x="530" y="315" width="170" height="8" rx="2" fill="#E5E2DB"/>
  <rect x="530" y="330" width="140" height="8" rx="2" fill="#E5E2DB"/>
  <rect x="530" y="345" width="155" height="8" rx="2" fill="#E5E2DB"/>
  <rect x="530" y="375" width="170" height="8" rx="2" fill="#E5E2DB"/>
  <rect x="530" y="390" width="130" height="8" rx="2" fill="#E5E2DB"/>
  <rect x="530" y="405" width="160" height="8" rx="2" fill="#E5E2DB"/>
  <line x1="80" y1="520" x2="720" y2="520" stroke="#1A1A1A" stroke-width="3"/>
  <line x1="80" y1="526" x2="720" y2="526" stroke="#1A1A1A" stroke-width="1"/>
  <text x="400" y="560" text-anchor="middle" font-family="'Helvetica Neue', Arial, sans-serif" font-size="11" letter-spacing="4" fill="#888888">11 CITIES · SCORES · EVENTS · GOVERNMENT</text>
</svg>
