<svg xmlns="http://www.w3.org/2000/svg" viewBox="0 0 128 128"><defs><linearGradient id="a" x1="0%" x2="100%" y1="0%" y2="100%"><stop offset="0%" stop-color="#8BAA80"/><stop offset="100%" stop-color="#6ECF8E"/></linearGradient></defs><rect width="128" height="128" fill="#0e1110" rx="28"/><path fill="url(#a)" d="M30 52h52v28a16 16 0 0 1-16 16H46a16 16 0 0 1-16-16V52z"/><path fill="none" stroke="url(#a)" stroke-linecap="round" stroke-width="5" d="M82 58a12 12 0 0 1 0 18H82"/><rect width="56" height="6" x="28" y="48" fill="url(#a)" rx="3"/><path fill="none" stroke="#8BAA80" stroke-linecap="round" stroke-width="4" d="M48 38c0-6 4-8 4-14" opacity=".6"/><path fill="none" stroke="#8BAA80" stroke-linecap="round" stroke-width="4" d="M58 40c0-6 4-8 4-14" opacity=".4"/><path fill="none" stroke="#8BAA80" stroke-linecap="round" stroke-width="4" d="M68 38c0-6 4-8 4-14" opacity=".6"/></svg>