<svg xmlns="http://www.w3.org/2000/svg" viewBox="0 0 128 128">
  <rect width="128" height="128" fill="#fffef5" rx="20"/>
  <rect x="4" y="4" width="120" height="120" fill="none" stroke="#111" stroke-width="6" rx="18"/>
  <!-- cup -->
  <path d="M30 54h56v36a16 16 0 01-16 16H46a16 16 0 01-16-16V54z" fill="#111"/>
  <!-- handle -->
  <path d="M86 62a12 12 0 010 20" fill="none" stroke="#111" stroke-width="6" stroke-linecap="round"/>
  <!-- rim -->
  <rect x="26" y="50" width="64" height="8" fill="#111" rx="4"/>
  <!-- steam -->
  <path d="M46 38c0-8 6-8 6-16" fill="none" stroke="#111" stroke-width="4" stroke-linecap="round" opacity="0.4"/>
  <path d="M58 40c0-8 6-8 6-16" fill="none" stroke="#111" stroke-width="4" stroke-linecap="round" opacity="0.25"/>
  <path d="M70 38c0-8 6-8 6-16" fill="none" stroke="#111" stroke-width="4" stroke-linecap="round" opacity="0.4"/>
</svg>